<svg height="512" width="512" xmlns="http://www.w3.org/2000/svg"><path d="m127.711113 477.5468445c-170.2814331-98.1691284-170.2814941-344.92453-.000061-443.093689s384.288948 25.2085228 384.288948 221.5468445-214.0074463 319.7160034-384.288887 221.5468445zm211.575264-153.4903259c-7.2199097.7207031-14.5706787 1.3459473-22.0299988 1.8761902l46.4170227 69.8633118c13.9685364-6.1626282 29.9348755.8331909 34.4324951 16.1270752 114.69104-29.7305604 77.6678467-69.916504-58.819519-87.8665772zm-163.3798523-233.6643219c-.618866 5.1861496-2.8244324 9.8734894-6.1148834 13.588295l53.5169525 80.5495224c38.5376282-1.3701172 77.4951172-.3894806 115.8780212 3.4244385 270.0752258-39.4358521 57.0018616-123.1862031-163.2800903-97.5622559zm.3378295 223.5188751c37.0950775-4.1334839 76.3495636-5.4930115 117.9580994-3.8194275l-71.9176636-108.2448273c-15.9496002-.7598724-31.4446564-2.0162506-46.2448273-3.7384644-188.4725379 22.1549531-229.9214896 86.509903.2043915 115.8027192zm162.9969788-115.4732514c-33.0716858 3.8690948-67.9025879 4.9631805-104.0965881 3.9070892l72.0603638 108.4594727c10.8727722.6953735 21.4930725 1.6260376 31.7876587 2.777771 201.71109-24.4126892 209.5249938-89.1567383.2485656-115.1443329zm162.0897217 47.1612244c-1.4949036-35.8885345-10.7270813-69.8060455-26.0789185-100.1290588-6.8220825 22.3664703-46.5194092 37.6604767-97.8617554 47.3955383 56.7142029 9.8417053 110.2617798 24.6882782 123.9406739 52.7335205zm-325.2449036-57.9843903c11.2695007-1.0738068 22.840683-1.919754 34.6391602-2.528595l-49.3707733-74.8745956c-13.581955 5.7888794-26.8599091-.2299728-32.856842-11.9869385-122.8625336 28.5266724-89.7928315 71.6428605 47.5884551 89.3901291zm-38.2503204 4.6983185c-53.5004654-10.5790863-98.9595261-28.0817566-95.827713-56.721405-18.4684677 32.7102661-29.6485634 70.0545349-31.3324805 109.8257141 13.8773013-27.1622009 64.7336798-43.1162872 127.1601935-53.1043091zm.1328735 127.3990631c-63.9003067-9.6508789-115.8787384-27.3412476-127.2924271-53.2418823 1.6860666 39.7563477 12.8603506 77.0982361 31.3177567 109.8147278-3.4287071-29.5341187 45.3153839-46.464325 95.9746704-56.5728455zm211.0875092 101.1377259c-.4547729-6.6682739 1.2922058-13.1361389 6.2117004-18.84729l-50.0316772-75.3037415c-42.1174316 2.6435852-85.2906952 1.4212646-129.1486511-2.3080444-246.917389 34.2670287-86.731659 123.2901 172.9686279 96.4590759zm126.1824035-54.3960266c15.322052-30.2692566 24.5523071-64.1137695 26.0822449-99.9161682-10.5081177 24.8981323-62.4708252 42.7970276-123.9390869 52.6504822 48.3128967 8.8605041 90.7506714 24.3712463 97.856842 47.265686zm-165.9514465-336.1902791c-12.3303833-14.8288822-92.0710907-15.9333239-106.5742798 0 11.3869629 15.2786007 96.0844727 15.1390667 106.5742798 0zm143.2479553 78.6599522c-35.7451477-47.6282654-88.3867187-81.881052-148.9377441-93.8318481 32.5503235 12.3963528 15.8271484 37.0867844-47.6625824 37.0867844-60.5796509.1801758-81.377594-23.8108101-47.4976959-37.1174393-64.1151276 12.612503-119.3370209 50.2457046-155.0491257 102.2851944 15.6439133-13.1066895 41.0959854-22.173233 72.6576462-29.2574081-.7595367-28.2443352 39.1473541-36.4768791 48.9405212-8.0976868 110.6949768-12.1234131 218.6697388-1.3712311 277.5489807 28.9324035zm-249.8222351 372.8131332c8.3175964 14.2437744 92.145874 16.4526672 106.5742798 0-4.7688904-12.7069702-89.1667328-17.6353759-106.5742798 0zm53.2219086-21.9148864c58.2597809-.3835144 82.2893524 22.4978943 48.06633 37.0039673 60.2702026-12.013916 112.6719666-46.1558838 148.3338928-93.5714722-15.4267578 8.2764893-33.3141785 14.6818542-53.6335144 19.2380371-3.425354 22.6056824-33.759613 29.7755737-46.519104 8.4037476-122.8388367 14.7520142-253.2819366.441803-298.7278748-36.2344055 35.7078857 52.0114136 90.8879013 89.6410217 154.9493713 102.2660217-34.4270172-13.2556153-12.3303222-38.0823975 47.5308991-37.105896z"/></svg>